<?xml version="1.0" encoding="utf-8"?>
<!-- Generator: Adobe Illustrator 28.0.0, SVG Export Plug-In . SVG Version: 6.00 Build 0)  -->
<svg version="1.1" id="svg1" xmlns:svg="http://www.w3.org/2000/svg"
	 xmlns="http://www.w3.org/2000/svg" xmlns:xlink="http://www.w3.org/1999/xlink" x="0px" y="0px" viewBox="0 0 1766.6 1231.05"
	 style="enable-background:new 0 0 1766.6 1231.05;" xml:space="preserve">
<style type="text/css">
	.st0{fill:#FFFFFF;}
</style>
<g>
	<path class="st0" d="M381.66,1046.79l4.11,40.74c35.85-2.89,74.39-6.07,113.17-9.43l-4.76-47.14
		C456.37,1036.94,417.83,1042.24,381.66,1046.79z"/>
	<path class="st0" d="M294.87,1056.92l3.78,37.46c20.26-1.56,42.84-3.32,66.96-5.24l-4.02-39.87
		C337.65,1052.18,315.1,1054.73,294.87,1056.92z"/>
	<path class="st0" d="M201.31,1066.15v35.5c0,0,29.49-2.11,75.57-5.61l-3.71-36.82C229.62,1063.75,201.31,1066.15,201.31,1066.15z"
		/>
	<path class="st0" d="M414.7,939.62c-64.29,13.13-74.82,13.74-74.82,13.74v41.05c0,0,25.35-3.08,78.57-10.74L414.7,939.62z"/>
	<path class="st0" d="M489.09,923.93c-17.18,3.72-32.38,6.95-45.89,9.79l3.91,45.79c21.38-3.15,46.08-6.87,74.21-11.21l-6.76-49.96
		C505.5,920.35,496.97,922.22,489.09,923.93z"/>
	<path class="st0" d="M1314.32,611.98c-73.33-33.15-140.65-54.98-278.63-84.62c-137.98-29.64-185.51-39.35-185.51-39.35
		s130.64,55.92,204.42,90.95c73.79,35.03,120.89,75.35,115.87,107.83c-5.02,32.48-40.85,65.63-140.96,100.11
		c-90.14,31.05-349.5,94.23-496.23,127.25l6.93,51.21c52.46-8.18,115.69-18.35,190.38-30.87c269.87-45.24,358.01-69.42,439.12-90.48
		c81.12-21.06,116.04-49.19,116.04-49.19s-30.46,55.85-177.85,98.41s-425.08,105.23-575.73,131.43c-0.74,0.13-1.48,0.25-2.22,0.38
		l5.03,49.89c32.29-2.87,64.23-5.83,94.38-8.8c181.78-17.89,323.65-28.22,457.66-51.01c134.01-22.79,154.01-42.28,188.18-77.62
		c34.16-35.34,43.44-82.77,48.13-100.52c4.69-17.75,2.01-22.43,38.51-55.25c36.5-32.81,47.88-45.87,48.55-75.34
		C1411.08,676.94,1387.64,645.13,1314.32,611.98z M1285.5,777.14c0,0,22.83-40.54,2.77-74.26c-20.06-33.71-57.68-63.79-57.68-63.79
		s37.68,19.01,59.03,38.74C1310.98,697.56,1327.32,732.54,1285.5,777.14z"/>
	<path class="st0" d="M531.69,391.44c5.7-11.14,25.17-35.87,103.07-67.86c88.95-36.53,347.6-94.24,569.94-132.54
		c222.34-38.3,360.59-61.64,360.59-61.64s-615.51,2.2-759.92,18.05S608.13,198.08,572.9,257.08c-35.22,59-46.01,136.73-46.01,136.73
		v0c-42.86,21.82-57.76,44.62-58.22,71.73c-0.69,41.17,55.55,84.71,195.75,126.48c140.2,41.77,352.78,92.5,352.78,92.5
		s-100.49-49.19-158.81-80.32c-58.32-31.13-132.4-65.02-130.04-111.91c2.36-46.89,44.12-81,291.11-163.51
		s437.97-153.29,437.97-153.29c-114.59,18.84-724.96,151.79-839.54,184.72C581.54,370.68,553.33,380.96,531.69,391.44z
		 M622.79,497.31c21.98,21.67,49.04,36.64,77.05,50.31c-20.69-4.13-40.84-11.44-59.73-21.71c-84.87-47.84-64.25-115.92,22.95-140.13
		c-16.36,12.49-33.11,24.9-46.54,40.02c-6.38,7.28-11.72,15.21-13.8,23.32C598.66,467.62,610.04,484.31,622.79,497.31z"/>
</g>
</svg>
