<?xml version="1.0" encoding="utf-8"?>
<!-- Generator: Adobe Illustrator 28.0.0, SVG Export Plug-In . SVG Version: 6.00 Build 0)  -->
<svg version="1.1" id="svg1" xmlns:svg="http://www.w3.org/2000/svg"
	 xmlns="http://www.w3.org/2000/svg" xmlns:xlink="http://www.w3.org/1999/xlink" x="0px" y="0px" viewBox="0 0 6259.31 1529.34"
	 style="enable-background:new 0 0 6259.31 1529.34;" xml:space="preserve">
<style type="text/css">
	.st0{enable-background:new    ;}
	.st1{fill:#FFFFFF;}
</style>
<g class="st0">
	<path class="st1" d="M583.93,1195.94l4.11,40.74c35.85-2.89,74.39-6.07,113.17-9.43l-4.76-47.14
		C658.65,1186.09,620.1,1191.38,583.93,1195.94z"/>
	<path class="st1" d="M497.14,1206.07l3.78,37.46c20.26-1.56,42.84-3.32,66.96-5.24l-4.02-39.87
		C539.92,1201.33,517.37,1203.88,497.14,1206.07z"/>
	<path class="st1" d="M403.58,1215.3v35.5c0,0,29.49-2.11,75.57-5.61l-3.71-36.82C431.89,1212.9,403.58,1215.3,403.58,1215.3z"/>
	<path class="st1" d="M616.97,1088.77c-64.29,13.13-74.82,13.74-74.82,13.74v41.05c0,0,25.35-3.08,78.57-10.74L616.97,1088.77z"/>
	<path class="st1" d="M691.36,1073.07c-17.18,3.71-32.38,6.95-45.89,9.79l3.91,45.79c21.38-3.15,46.08-6.87,74.21-11.21l-6.76-49.96
		C707.77,1069.5,699.24,1071.37,691.36,1073.07z"/>
	<path class="st1" d="M1516.59,761.13c-73.33-33.15-140.65-54.98-278.63-84.62s-185.51-39.35-185.51-39.35
		s130.64,55.92,204.42,90.95c73.79,35.03,120.89,75.35,115.87,107.83c-5.02,32.48-40.85,65.63-140.96,100.11
		c-90.14,31.05-349.5,94.23-496.23,127.25l6.93,51.21c52.46-8.18,115.69-18.35,190.38-30.87c269.87-45.24,358.01-69.42,439.12-90.48
		c81.12-21.06,116.04-49.19,116.04-49.19s-30.46,55.85-177.85,98.41c-147.38,42.56-425.08,105.23-575.73,131.43
		c-0.74,0.13-1.48,0.25-2.22,0.38l5.03,49.89c32.29-2.87,64.23-5.83,94.38-8.8c181.78-17.89,323.65-28.22,457.66-51.01
		c134.01-22.79,154.01-42.28,188.18-77.62c34.16-35.34,43.44-82.77,48.13-100.52c4.69-17.75,2.01-22.43,38.51-55.25
		c36.5-32.81,47.88-45.87,48.55-75.34C1613.35,826.09,1589.92,794.28,1516.59,761.13z M1487.77,926.28c0,0,22.83-40.54,2.77-74.26
		c-20.06-33.71-57.68-63.79-57.68-63.79s37.68,19.01,59.03,38.74C1513.25,846.71,1529.6,881.69,1487.77,926.28z"/>
	<path class="st1" d="M733.96,540.59c5.7-11.14,25.17-35.87,103.07-67.86c88.95-36.53,347.6-94.24,569.94-132.54
		c222.34-38.3,360.59-61.64,360.59-61.64s-615.51,2.2-759.92,18.05S810.4,347.23,775.18,406.23s-46.01,136.73-46.01,136.73v0
		c-42.86,21.82-57.76,44.62-58.22,71.73c-0.69,41.17,55.55,84.71,195.75,126.48c140.2,41.77,352.78,92.5,352.78,92.5
		s-100.49-49.19-158.81-80.32c-58.32-31.13-132.4-65.02-130.04-111.91c2.36-46.89,44.12-81,291.11-163.51
		s437.97-153.29,437.97-153.29c-114.59,18.84-724.96,151.79-839.54,184.72C783.82,519.83,755.6,530.11,733.96,540.59z
		 M825.06,646.46c21.98,21.67,49.04,36.64,77.05,50.31c-20.69-4.13-40.84-11.44-59.73-21.71c-84.87-47.84-64.25-115.92,22.95-140.13
		c-16.36,12.49-33.11,24.9-46.54,40.02c-6.38,7.28-11.72,15.21-13.8,23.32C800.93,616.77,812.32,633.45,825.06,646.46z"/>
	<path class="st1" d="M2301.78,317.98c-212.8,288.16-405.23,591.23-576.01,906.1C1938.41,935.82,2131.17,632.96,2301.78,317.98z"/>
	<path class="st1" d="M2770.04,756c-27.82-16.52-76.14-27.55-143.62-32.77l-0.01,0c-41.82-3.03-68.98-5.94-80.73-8.65
		c-11.45-2.64-19.83-6.01-24.92-9.99c-4.75-3.71-7.06-8.19-7.06-13.7c0-10.17,8.52-18.41,25.32-24.48
		c17.77-6.42,42.59-9.56,73.61-9.23c56.44,0.61,102.36,13.39,136.49,37.99l2.27,1.64l46.37-55.55l-2.58-1.89
		c-21.46-15.75-48.37-28.11-80-36.74c-31.54-8.6-66.03-12.96-102.51-12.96c-25.86,0-50.21,2.34-72.37,6.95
		c-22.25,4.63-41.8,11.53-58.1,20.51c-16.46,9.07-29.4,20.43-38.48,33.76c-9.16,13.45-13.81,28.77-13.81,45.52
		c0,12.74,3.56,25.15,10.57,36.88c7.02,11.75,18.71,22.01,34.76,30.49c15.79,8.35,35.55,15.24,58.73,20.47
		c23.03,5.21,51.7,9.24,85.23,12c45.86,3.63,76.19,8.42,90.18,14.24c13.22,5.51,19.65,13.08,19.65,23.16
		c0,23.9-33.78,36.01-100.41,36.01c-67.88,0-122.49-17.66-162.33-52.5l-2.24-1.96l-48.54,54.62l2.47,1.98
		c12.34,9.87,28.6,20.17,48.31,30.6c19.79,10.48,43.78,18.99,71.29,25.29c27.49,6.29,57.47,9.48,89.1,9.48
		c29.08,0,55.56-2.65,78.7-7.88c23.24-5.25,43.05-12.78,58.89-22.39c15.97-9.69,28.18-21.55,36.3-35.23
		c8.14-13.73,12.26-28.83,12.26-44.91C2812.82,796.67,2798.43,772.87,2770.04,756z"/>
	<path class="st1" d="M3267.52,675.04c-9.49-14.92-21.64-28.15-36.09-39.32c-14.41-11.14-31.38-20.47-50.42-27.74
		c-18.98-7.24-38.48-12.16-57.97-14.63c-19.39-2.45-37.22-3.7-52.98-3.7c-15.77,0-33.6,1.24-52.98,3.7
		c-19.49,2.47-39,7.4-57.97,14.63c-19.03,7.26-35.99,16.6-50.42,27.74c-14.46,11.17-26.61,24.4-36.09,39.32
		c-9.49,14.93-16,30.39-19.33,45.96c-3.31,15.42-4.98,29.68-4.98,42.4c0,12.72,1.68,26.98,4.98,42.4
		c3.33,15.57,9.83,31.03,19.33,45.96c9.49,14.92,21.63,28.15,36.09,39.32c14.44,11.15,31.4,20.49,50.42,27.74
		c18.96,7.23,38.46,12.16,57.97,14.63c19.37,2.45,37.19,3.7,52.98,3.7c15.78,0,33.6-1.24,52.98-3.7c19.5-2.47,39-7.39,57.97-14.63
		c19.03-7.26,35.99-16.59,50.42-27.74c14.45-11.17,26.6-24.4,36.09-39.32c9.48-14.91,15.98-30.37,19.33-45.96
		c3.3-15.46,4.98-29.72,4.98-42.4c0-12.67-1.67-26.93-4.98-42.4C3283.5,705.41,3277,689.95,3267.52,675.04z M3196.39,807.55
		c-6.15,12.95-15.19,24.01-26.87,32.86c-11.78,8.91-26.24,15.77-42.99,20.38c-16.85,4.65-35.85,7-56.47,7
		c-42.07,0-75.61-9.29-99.7-27.61c-23.84-18.13-35.93-43.96-35.93-76.78c0-16.3,3.13-31.15,9.3-44.15
		c6.15-12.97,15.2-24.02,26.87-32.86c11.75-8.9,26.21-15.75,42.98-20.38c16.87-4.65,35.87-7.01,56.47-7.01
		c20.6,0,39.6,2.36,56.47,7.01c16.76,4.62,31.23,11.48,42.98,20.38c11.68,8.84,20.72,19.9,26.87,32.86
		c6.17,12.99,9.3,27.84,9.3,44.15C3205.69,779.71,3202.56,794.57,3196.39,807.55z"/>
	<polygon class="st1" points="3656.04,823.65 3440.15,600.67 3439.27,599.75 3349.93,599.75 3349.93,927.04 3429.84,927.04 
		3429.84,691.24 3656.03,926.13 3656.91,927.04 3735.95,927.04 3735.95,599.75 3656.04,599.75 	"/>
	<path class="st1" d="M3949.41,599.75l-182.63,327.29h89.55l36.24-67.93h200.81l36.24,67.93h90.52l-182.63-327.29H3949.41z
		 M3927.68,793.44L3992.73,672l65.05,121.45H3927.68z"/>
	<polygon class="st1" points="4650.39,669.1 4773.27,669.1 4773.27,927.04 4856.6,927.04 4856.6,669.1 4992.46,669.1 
		4992.46,599.75 4650.39,599.75 	"/>
	<path class="st1" d="M5671.51,601.28l-0.86-1.53h-89.2l-177.96,314.76l-88.63-108.58c4.14-1.43,7.99-2.98,11.69-4.7
		c2.35-1.09,4.92-2.24,7.61-3.44c12.87-5.76,28.89-12.93,37.28-21.5c17.4-17.78,26.23-40.5,26.23-67.5
		c0-17.24-3.78-33.01-11.23-46.86c-7.45-13.82-18.01-25.45-31.4-34.57c-13.28-9.03-29.12-15.97-47.08-20.62
		c-17.88-4.63-37.48-6.98-58.26-6.98h-220.39v327.29h82.84V817.81l99.55-0.01l15.72-0.93l87.03,110.24h81.94h17.39h73.28
		l36.73-67.99h203.56l36.73,67.93h91.66L5671.51,601.28z M5297.96,740.29c-10.23,7.25-27.93,10.92-52.63,10.92h-133.68v-83.95
		h133.68c24.69,0,42.4,3.67,52.63,10.92c10.04,7.12,14.92,17.28,14.92,31.06C5312.88,723.02,5308,733.18,5297.96,740.29z
		 M5559.36,793.44l65.96-121.51l65.96,121.51H5559.36z"/>
	<path class="st1" d="M4556.27,801.23c13.88-6.46,25.93-14.85,35.79-24.94c17.4-17.78,26.23-40.5,26.23-67.5
		c0-17.24-3.78-33.01-11.23-46.86c-7.45-13.82-18.01-25.45-31.4-34.57c-13.28-9.03-29.12-15.97-47.08-20.62
		c-17.88-4.63-37.48-6.98-58.26-6.98h-220.39v327.29h82.84V817.81l103.42-0.01l15.73-0.93l87.03,110.24h104.55l-98.91-121.18
		C4548.72,804.5,4552.57,802.95,4556.27,801.23z M4518.59,740.29c-10.23,7.25-27.93,10.92-52.63,10.92h-133.68v-83.95h133.68
		c24.69,0,42.4,3.67,52.63,10.92c10.04,7.12,14.92,17.28,14.92,31.06C4533.51,723.02,4528.63,733.18,4518.59,740.29z"/>
</g>
</svg>
